HIERARCHY
ROOT root
{
	OFFSET 0.000000 0.000000 0.000000
	CHANNELS 6 Xposition Yposition Zposition Zrotation Yrotation Xrotation
	JOINT lhip
	{
		OFFSET 0.058581 -0.082280 -0.017664
		CHANNELS 3 Zrotation Yrotation Xrotation
		JOINT lknee
		{
			OFFSET 0.043451 -0.386469 0.008037
			CHANNELS 3 Zrotation Yrotation Xrotation
			JOINT lankle
			{
				OFFSET -0.014790 -0.426874 -0.037428
				CHANNELS 3 Zrotation Yrotation Xrotation
				JOINT ltoe
				{
					OFFSET 0.041054 -0.060286 0.122042
					CHANNELS 3 Zrotation Yrotation Xrotation
					End Site
					{
						OFFSET 0.000000 0.000000 0.000000
					}
				}
			}
		}
	}
	JOINT rhip
	{
		OFFSET -0.060310 -0.090513 -0.013543
		CHANNELS 3 Zrotation Yrotation Xrotation
		JOINT rknee
		{
			OFFSET -0.043257 -0.383688 -0.004843
			CHANNELS 3 Zrotation Yrotation Xrotation
			JOINT rankle
			{
				OFFSET 0.019056 -0.420046 -0.034562
				CHANNELS 3 Zrotation Yrotation Xrotation
				JOINT rtoe
				{
					OFFSET -0.034840 -0.062106 0.130323
					CHANNELS 3 Zrotation Yrotation Xrotation
					End Site
					{
						OFFSET 0.000000 0.000000 0.000000
					}
				}
			}
		}
	}
	JOINT lowerback
	{
		OFFSET 0.004439 0.124404 -0.038385
		CHANNELS 3 Zrotation Yrotation Xrotation
		JOINT upperback
		{
			OFFSET 0.004488 0.137956 0.026820
			CHANNELS 3 Zrotation Yrotation Xrotation
			JOINT chest
			{
				OFFSET -0.002265 0.056032 0.002855
				CHANNELS 3 Zrotation Yrotation Xrotation
				JOINT lowerneck
				{
					OFFSET -0.013390 0.211636 -0.033468
					CHANNELS 3 Zrotation Yrotation Xrotation
					JOINT upperneck
					{
						OFFSET 0.010113 0.088937 0.050410
						CHANNELS 3 Zrotation Yrotation Xrotation
						End Site
						{
							OFFSET 0.000000 0.000000 0.000000
						}
					}
				}
				JOINT lclavicle
				{
					OFFSET 0.071702 0.114000 -0.018898
					CHANNELS 3 Zrotation Yrotation Xrotation
					JOINT lshoulder
					{
						OFFSET 0.122921 0.045205 -0.019046
						CHANNELS 3 Zrotation Yrotation Xrotation
						JOINT lelbow
						{
							OFFSET 0.255332 -0.015649 -0.022946
							CHANNELS 3 Zrotation Yrotation Xrotation
							JOINT lwrist
							{
								OFFSET 0.265709 0.012698 -0.007375
								CHANNELS 3 Zrotation Yrotation Xrotation
								End Site
								{
									OFFSET 0.000000 0.000000 0.000000
								}
							}
						}
					}
				}
				JOINT rclavicle
				{
					OFFSET -0.082954 0.112472 -0.023707
					CHANNELS 3 Zrotation Yrotation Xrotation
					JOINT rshoulder
					{
						OFFSET -0.113228 0.046853 -0.008472
						CHANNELS 3 Zrotation Yrotation Xrotation
						JOINT relbow
						{
							OFFSET -0.260127 -0.014369 -0.031269
							CHANNELS 3 Zrotation Yrotation Xrotation
							JOINT rwrist
							{
								OFFSET -0.269108 0.006794 -0.006027
								CHANNELS 3 Zrotation Yrotation Xrotation
								End Site
								{
									OFFSET 0.000000 0.000000 0.000000
								}
							}
						}
					}
				}
			}
		}
	}
}
MOTION
Frames: 10
Frame Time: 0.033333
2.356865 0.663577 1.000151 -87.227214 0.286255 83.703372 -3.260048 0.662084 4.316976 -0.324958 -7.072620 1.284351 3.666391 10.783315 -7.877485 0.000000 -0.000000 0.000000 -0.305407 -3.900921 -2.392376 -1.773033 -1.092671 13.375375 1.345709 -9.879977 -10.690306 0.000000 -0.000000 0.000000 -0.141853 2.081841 5.278211 0.406019 -3.993366 11.027668 -2.159009 0.429179 -4.679860 0.062626 -2.500973 1.632787 3.167028 -3.389920 4.695890 -30.654744 -9.314620 3.094413 -49.633810 -8.825081 14.982962 2.255758 -18.401317 4.770390 -10.182201 -6.623655 9.522415 28.541077 14.077684 6.103863 52.404468 5.224720 18.869836 -3.020841 24.120292 8.197273 6.239737 5.719497 10.535592 
2.357570 0.665435 0.997689 -87.344892 0.064462 83.746177 -3.353918 0.791998 4.153475 -0.423704 -7.206835 1.211613 3.337857 11.002784 -7.542034 0.000000 -0.000000 0.000000 -0.193290 -2.312443 -2.663261 -1.965391 -1.673279 13.663994 1.180818 -10.373351 -10.605704 0.000000 -0.000000 0.000000 -0.712245 1.276113 5.803714 0.203549 -2.968344 10.287960 -1.825073 0.574130 -4.191434 0.475509 -2.491283 1.483585 3.190234 -3.404067 4.031971 -29.432327 -8.953552 2.597756 -50.016268 -8.706563 15.099313 0.347385 -19.672965 5.800741 -9.084302 -6.128579 8.929260 27.975537 14.192117 5.775651 53.243670 5.233750 19.234455 -3.030895 24.208311 8.118444 5.243680 5.668759 9.675205 
2.358368 0.667172 0.995631 -87.443508 -0.188196 83.715526 -3.568913 0.826781 4.186325 -0.469526 -7.367942 1.101532 3.187801 11.033387 -7.243542 0.000000 -0.000000 0.000000 -0.215858 -1.386692 -2.769758 -2.191228 -2.053060 13.799912 1.089884 -10.701044 -10.516239 0.000000 -0.000000 0.000000 -0.977455 0.711185 6.344916 0.039656 -2.393736 9.616371 -1.723169 0.700271 -3.675907 0.385970 -2.546239 1.076114 3.095033 -3.285215 3.905996 -29.461407 -9.209672 2.831854 -50.242131 -8.778290 14.985445 0.871038 -19.804411 5.602828 -8.947501 -6.267853 8.594560 27.910031 14.426804 5.901892 53.564824 5.677768 19.195413 -3.243350 24.090775 8.097747 4.920616 5.557788 9.439886 
2.357684 0.667523 0.995102 -87.040326 -0.181602 83.813277 -3.540589 0.722110 4.043320 -0.520021 -7.520027 1.217810 3.091696 10.799364 -7.439883 0.000000 -0.000000 0.000000 -0.229958 -1.575657 -2.640717 -2.247247 -2.242118 13.531591 1.169990 -10.739823 -10.378844 0.000000 -0.000000 0.000000 -1.157609 0.819944 5.841677 0.250981 -2.806634 10.381123 -1.653394 0.744957 -3.780580 0.217252 -2.493651 1.324801 3.377806 -3.560864 2.704696 -29.239003 -9.324376 2.779239 -50.711854 -8.851597 15.080204 1.034667 -19.565031 5.377964 -9.700703 -6.327189 9.025075 27.953954 14.611388 5.905278 53.450912 5.661999 18.960272 -3.346894 24.069161 7.867700 5.157895 5.607814 9.897564 
2.357584 0.667748 0.994851 -87.014243 -0.208940 83.766911 -3.564015 0.827199 4.108172 -0.443077 -7.486266 1.157598 3.102247 10.689275 -7.470227 0.000000 -0.000000 0.000000 -0.243568 -1.624681 -2.576806 -2.312337 -2.345206 13.498842 1.192974 -10.525914 -10.424453 0.000000 -0.000000 0.000000 -1.193007 0.849263 5.850708 0.239990 -2.792328 10.792563 -1.686785 0.646939 -3.951083 0.261859 -2.215933 1.537134 3.605046 -3.446201 1.763911 -29.300835 -9.438731 2.805558 -50.580092 -8.814755 14.866909 1.189285 -20.281460 4.762003 -7.811967 -7.024661 9.005329 27.954052 14.702991 5.846691 53.462170 5.711108 18.785678 -3.137626 24.082407 7.809710 4.318598 5.937708 10.112440 
2.357159 0.667661 0.994748 -86.795247 -0.183335 83.781728 -3.469433 0.816674 4.037996 -0.582300 -7.639570 1.277085 3.003239 10.517831 -7.413809 0.000000 -0.000000 0.000000 -0.245266 -1.753672 -2.463674 -2.268362 -2.348746 13.349837 1.198909 -10.613610 -10.250780 0.000000 -0.000000 0.000000 -1.239221 0.921216 5.735856 0.347987 -3.005526 10.932620 -1.570456 0.634369 -3.872793 0.176663 -2.291652 1.303696 3.663448 -3.579896 1.420472 -29.294581 -9.607715 2.948493 -50.723648 -8.846564 14.908358 1.170511 -19.773544 5.021185 -9.249404 -6.292734 9.050671 28.036277 14.741916 5.881797 53.300177 5.671564 18.678491 -3.410995 24.185706 7.670155 4.964458 5.625926 10.084102 
2.357637 0.667502 0.994494 -87.010681 -0.283503 83.565194 -3.602187 0.874530 4.230136 -0.576401 -7.581903 1.333044 3.256215 10.673787 -7.567356 0.000000 -0.000000 0.000000 -0.311759 -1.494134 -2.408701 -2.316091 -2.366527 13.598886 1.176605 -10.640990 -10.377184 0.000000 -0.000000 0.000000 -1.225595 0.854189 6.283779 0.239376 -2.775806 10.807794 -1.612540 0.693049 -3.777809 0.090769 -2.165336 0.832871 3.710670 -3.577078 1.212083 -29.313234 -9.915644 2.980865 -50.640398 -8.770340 14.883225 1.325830 -20.075416 4.731298 -8.833024 -6.356869 8.700492 28.132323 15.050864 5.935647 53.205547 5.810040 18.616747 -3.592667 24.317690 7.068041 4.859911 5.479970 9.375570 
2.357284 0.667655 0.994332 -86.887313 -0.239343 83.497861 -3.511417 0.843760 4.171292 -0.680263 -7.671247 1.612835 3.178113 10.564653 -7.836583 0.000000 -0.000000 0.000000 -0.257574 -1.593785 -2.262895 -2.374353 -2.440677 13.564763 1.144697 -10.549138 -10.333282 0.000000 -0.000000 0.000000 -1.219370 0.831987 6.275806 0.247490 -2.881832 11.180582 -1.600043 0.735480 -3.994996 0.093428 -2.213661 0.675878 3.759607 -3.570886 0.900581 -29.462903 -10.068300 3.114583 -50.455888 -8.721630 14.751098 1.299307 -20.471275 4.535490 -7.620526 -6.842902 8.646717 28.206945 15.188707 6.030379 53.121085 5.815481 18.428963 -3.483085 24.275294 6.928206 4.263759 5.782247 9.255398 
2.357133 0.667664 0.994136 -86.789334 -0.330107 83.454941 -3.583186 0.805649 4.100521 -0.763904 -7.711692 1.843349 3.259514 10.527035 -7.763374 0.000000 -0.000000 0.000000 -0.370278 -1.570076 -2.290883 -2.347137 -2.451935 13.766362 1.229615 -10.506485 -10.387682 0.000000 -0.000000 0.000000 -1.306647 0.860818 6.235100 0.262137 -2.929430 11.442438 -1.604890 0.705392 -4.022438 0.097736 -2.238993 0.587764 3.820828 -3.665606 0.584680 -29.461171 -10.281680 3.164379 -50.414473 -8.760985 14.708644 1.272776 -20.415456 4.518420 -7.744412 -6.913647 8.847582 28.282969 15.429975 6.165307 53.070158 5.848716 18.324283 -3.602990 24.215690 6.719874 4.313235 5.983328 9.490843 
2.357137 0.667690 0.993717 -86.738585 -0.431902 83.232682 -3.708587 0.771388 4.017319 -0.914369 -7.782936 2.498782 3.304237 10.370574 -8.241152 0.000000 -0.000000 0.000000 -0.525711 -1.657483 -2.218409 -2.413425 -2.682345 14.120658 1.061692 -10.564185 -10.514434 0.000000 -0.000000 0.000000 -1.348934 0.877542 6.497889 0.230324 -2.950038 11.693946 -1.583107 0.651629 -4.067009 0.124108 -2.204539 0.549207 3.767723 -3.591887 -0.068864 -29.528039 -10.620973 3.433243 -50.261255 -8.782013 14.528057 1.139304 -20.681303 4.497957 -7.780711 -7.049245 8.791310 28.263862 15.743462 6.369161 52.993109 6.020068 18.185664 -3.604057 24.231201 6.655853 4.337321 6.087378 9.584595 
